<?xml version="1.0" encoding="utf-8"?>
<svg fill="skyblue" viewBox="0 0 511.999 511.999" version="1.1" xmlns="http://www.w3.org/2000/svg" xmlns:xlink="http://www.w3.org/1999/xlink" xml:space="preserve">
	<g>
		<g>
			<path d="M490.741,275.098l-11.806-11.808L326.502,415.723L96.276,185.497L248.709,33.065l-11.808-11.807
				c-28.344-28.344-74.464-28.344-102.808,0L21.258,134.094c-28.344,28.344-28.344,74.464,0,102.808l253.84,253.839
				c14.172,14.172,32.788,21.259,51.404,21.259c18.616,0,37.232-7.085,51.404-21.258l112.835-112.835
				C519.085,349.562,519.085,303.442,490.741,275.098z"/>
		</g>
	</g>
	<g>
		<g>
			<rect x="77.351" y="128.836" transform="matrix(0.7071 -0.7071 0.7071 0.7071 -48.6829 173.5355)" width="215.567" height="33.395"/>
		</g>
	</g>
	<g>
		<g>
			<rect x="113.624" y="165.103" transform="matrix(0.7071 -0.7071 0.7071 0.7071 -63.7036 209.8071)" width="215.567" height="33.395"/>
		</g>
	</g>
	<g>
		<g>
			<rect x="149.881" y="201.376" transform="matrix(0.7071 -0.7071 0.7071 0.7071 -78.7332 246.0685)" width="215.567" height="33.395"/>
		</g>
	</g>
	<g>
		<g>
			<rect x="186.148" y="237.622" transform="matrix(0.7071 -0.7071 0.7071 0.7071 -93.7404 282.3299)" width="215.567" height="33.395"/>
		</g>
	</g>
	<g>
		<g>
			<rect x="222.405" y="273.895" transform="matrix(0.7071 -0.7071 0.7071 0.7071 -108.7699 318.5912)" width="215.567" height="33.395"/>
		</g>
	</g>
	<g>
		<g>
			<rect x="258.673" y="310.152" transform="matrix(0.7071 -0.7071 0.7071 0.7071 -123.7851 354.856)" width="215.567" height="33.395"/>
		</g>
	</g>
</svg>