<?xml version="1.0" encoding="utf-8"?>
<svg fill="white" width="800px" height="800px" viewBox="0 0 512 512" version="1.1" xmlns="http://www.w3.org/2000/svg" xmlns:xlink="http://www.w3.org/1999/xlink" xml:space="preserve">
	<g>
		<g>
			<g>
				<path d="M490.667,0H21.333C9.551,0,0,9.551,0,21.333v469.333C0,502.449,9.551,512,21.333,512h469.333
					c11.782,0,21.333-9.551,21.333-21.333V21.333C512,9.551,502.449,0,490.667,0z M469.333,469.333H42.667V42.667h426.667V469.333z"/>
				<path d="M149.333,170.667C172.907,170.667,192,151.573,192,128c0-23.573-19.093-42.667-42.667-42.667
					c-23.573,0-42.667,19.093-42.667,42.667C106.667,151.573,125.76,170.667,149.333,170.667z"/>
				<path d="M256,298.667c23.573,0,42.667-19.093,42.667-42.667S279.573,213.333,256,213.333S213.333,232.427,213.333,256
					S232.427,298.667,256,298.667z"/>
				<path d="M362.667,426.667c23.573,0,42.667-19.093,42.667-42.667c0-23.573-19.093-42.667-42.667-42.667
					C339.093,341.333,320,360.427,320,384C320,407.573,339.093,426.667,362.667,426.667z"/>
			</g>
		</g>
	</g>
</svg>