<?xml version="1.0" encoding="utf-8"?>
<svg fill="crimson" width="800px" height="800px" viewBox="0 0 512 512" version="1.1" xmlns="http://www.w3.org/2000/svg" xmlns:xlink="http://www.w3.org/1999/xlink" xml:space="preserve">
	<g>
		<g>
			<path d="M484.375,110.985c0-40.08-15.609-77.761-43.95-106.102c-6.51-6.511-17.067-6.511-23.578,0L203.312,218.421
				c-18.214-8.719-41.252-5.905-56.94,9.782c-15.367,15.369-18.615,38.329-9.76,56.917L52.06,369.673
				c-32.578,32.577-32.583,85.309,0,117.892c32.577,32.578,85.309,32.583,117.89-0.001l84.552-84.551
				c6.795,3.237,14.17,4.865,21.55,4.865c12.809,0,25.618-4.875,35.368-14.626c15.683-15.681,18.505-38.719,9.782-56.94
				l119.223-119.224C468.766,188.746,484.375,151.066,484.375,110.985z M146.372,463.986c-19.546,19.547-51.185,19.55-70.734,0
				c-15.682-15.682-18.504-38.719-9.782-56.94l33.36,33.36c6.51,6.511,17.067,6.512,23.578,0c6.511-6.511,6.511-17.067,0-23.578
				l-35.368-35.368l23.579-23.579l35.368,35.368c6.511,6.511,17.067,6.511,23.578,0c6.511-6.51,6.511-17.067,0-23.578l-35.368-35.368
				l23.578-23.578l70.735,70.735L146.372,463.986z M287.843,369.673c-6.501,6.502-17.08,6.5-23.579,0l-94.313-94.313
				c-6.5-6.501-6.5-17.078,0-23.578c6.501-6.501,17.078-6.501,23.579,0c2.492,2.492,91.849,91.848,94.313,94.313
				C294.344,352.596,294.344,363.173,287.843,369.673z M299.632,310.726l-23.578-23.578l93.639-93.639
				c6.511-6.511,6.511-17.067,0-23.578c-6.51-6.511-17.067-6.511-23.578,0l-93.639,93.639l-23.578-23.578L427.808,41.08
				c15.074,20.069,23.225,44.36,23.225,69.905c0,31.173-12.14,60.481-34.183,82.524L299.632,310.726z"/>
		</g>
	</g>
</svg>